<svg version="1.2" xmlns="http://www.w3.org/2000/svg" viewBox="0 0 512 512" width="512" height="534">
	<title>Logo</title>
	<style>
		.s0 { fill: #ffbd00;stroke: #000000;paint-order:stroke fill markers;stroke-linejoin: round;stroke-width: 10 } 
		.s1 { fill: #000000;stroke: #000000;paint-order:stroke fill markers;stroke-linejoin: round;stroke-width: 10 } 
		.s2 { fill: #000000 } 
		.s3 { fill: #ff0054;stroke: #000000;paint-order:stroke fill markers;stroke-linejoin: round;stroke-width: 10 } 
		.s4 { fill: #390099;stroke: #000000;paint-order:stroke fill markers;stroke-linejoin: round;stroke-width: 10 } 
	</style>
	<g id="Background">
		<path id="Path 0" class="s0" d="m245.5 57.1c-3.8 0.5-8 1.3-9.3 1.9l-2.2 1v131.5c-12 1.1-19.8 2.5-25 3.8-5.2 1.4-13.1 3.9-17.5 5.8-4.4 1.8-11.8 5.9-16.5 9-4.7 3.1-11.4 8.5-15 12-3.6 3.5-8.5 9.3-11 12.9-2.4 3.6-5.8 9.7-7.6 13.5-1.8 3.8-3.7 9.1-4.3 11.7-0.6 2.7-1.5 4.8-2.1 4.8-0.7 0-1 18.7-1 54v54h100v-181c53.8 0.1 55.7 0.2 59 2.1 1.9 1.1 4.4 3.2 5.5 4.7 1.9 2.6 2 4.5 2.3 62.7 0.2 52.2 0.1 61-1.4 68-0.9 4.4-2.8 10.9-4.2 14.5-1.5 3.6-4.4 9.2-6.5 12.5-2.2 3.3-5.9 8.4-8.3 11.2l-4.4 5.3h42.5c11.2-11.6 16.8-18.3 19.6-22.3 2.8-3.9 7-11 9.4-15.7 2.3-4.7 5.5-11.9 6.9-16 1.5-4.1 3.7-12 4.9-17.5 2.2-10 2.2-10.1 2.2-127.7v-117.8c-84.5 0.2-112.2 0.6-116 1.1z"/>
		<path id="Path 1" class="s1" d="m366 112v55c69.3 0.1 69.5 0 72.9-2.2 1.9-1.3 4.4-3.6 5.5-5.1 1.8-2.4 2.1-4.2 2-11.5-0.1-5.1-1.1-12.4-2.4-17.7-1.2-5-4-12.8-6.2-17.5-2.2-4.7-5.9-11.4-8.3-15-2.4-3.6-8.1-10.2-12.7-14.6-4.6-4.5-11.4-10.2-15.3-12.7-3.9-2.5-9.7-5.7-13-7.1-3.3-1.5-8.9-3.6-12.5-4.7-3.6-1.1-7.3-1.9-8.3-1.9-1.6 0-1.7 3.3-1.7 55z"/>
		<path id="Path 2" class="s2" d="m233.2 388.2l0.3 15.3c201.8 0 203.4 0 206.1-2 1.4-1.1 3.6-3.3 4.8-4.8 1.5-2.1 2.1-4.3 2.1-8.2 0-3.9-0.6-6.1-2.1-8.2-1.2-1.5-3.4-3.7-4.8-4.8-2.7-2-4.5-2-104.7-2.3l-101.9-0.2z"/>
		<path id="Path 3" class="s3" d="m196.1 2.3c-1.9 1.2-4.3 4-5.4 6.2-1.1 2.2-2.8 7.4-3.8 11.5-1.1 4.1-1.9 10.4-1.9 14 0 3.6 0.6 9.4 1.4 13 0.8 3.6 2.8 9.9 4.5 14 1.7 4.1 3.9 8.6 4.9 9.8l1.7 2.4c9.3-4.6 15.6-7.2 20-8.8 4.4-1.5 8.1-2.9 8.3-3.1 0.1-0.2-1.3-2.9-3.2-6-1.9-3.2-4.1-8.3-5-11.3-0.9-3-1.6-7.5-1.6-10 0-2.5 0.9-7.2 2-10.5 1.1-3.3 2-7.4 2-9 0-1.6-0.8-4.6-1.8-6.5-0.9-1.9-3.3-4.5-5.2-5.8-2.5-1.6-4.9-2.2-8.5-2.2-3.4 0-6.1 0.7-8.4 2.3zm-47 26.9c-3 1.6-5 3.6-6.4 6.3-1.6 3.2-1.9 5.9-1.9 14 0 7.3 0.6 11.9 2.2 17 1.2 3.8 3.3 9.1 4.6 11.8 1.3 2.6 4.5 7.3 7.1 10.5 2.5 3.1 6 6.9 7.7 8.3l3.1 2.6c10.9-10.8 15.9-15.4 18.3-17.1 2.3-1.7 4.2-3.4 4.2-3.8 0-0.5-1.2-1.6-2.7-2.7-1.6-1-4.4-4-6.4-6.7-2-2.7-4.4-6.9-5.3-9.4-1.2-3-1.8-7.6-1.9-13.7-0.2-7.4-0.6-9.7-2.2-11.8-1.1-1.5-3.1-3.6-4.5-4.7-1.4-1.1-4.5-2.1-7-2.4-3.4-0.4-5.5 0-8.9 1.8zm-15.1 422.5c0 44.5 0.2 49.1 1.8 52.3 0.9 1.9 3.3 4.5 5.2 5.8 3.3 2.2 4.3 2.3 22.5 2.2 13.6 0 20.7-0.4 25-1.5 3.3-0.8 9.4-3.2 13.5-5.2 5.3-2.6 9.6-5.7 14.6-10.7 5.2-5.3 8.1-9.3 11.2-15.6 2.3-4.7 4.9-11.8 5.7-15.8 1.2-5.5 1.4-13.4 1.3-33.5l-0.3-26.2-100.5-0.5z"/>
		<path id="Path 4" class="s4" d="m238 282.5v90.5h42c6.8-8.1 10.5-13.2 12.7-16.5 2.1-3.3 5-8.9 6.5-12.5 1.4-3.6 3.3-10.1 4.2-14.5 1.5-7 1.6-15.8 1.4-68-0.3-58.2-0.4-60.1-2.3-62.7-1.1-1.5-3.6-3.6-5.5-4.7-3.3-1.9-5.2-2-31.3-2.1h-27.7z"/>
		<path id="Path 5" class="s4" d="m221.5 63.5c-5.5 2-14.5 5.7-20 8.4-5.5 2.6-13.6 7.7-18 11.2-4.4 3.5-11.6 10-16 14.5-4.4 4.4-10.1 11.2-12.6 15-2.6 3.8-6.5 10.6-8.8 15.2-2.2 4.5-5.2 11.5-6.6 15.5-1.3 3.9-3.2 10.4-4.1 14.2-1.5 6-1.7 14.3-2 57.8-0.3 33.4-0.1 50.7 0.6 50.7 0.6 0 1.5-2.1 2.1-4.7 0.6-2.7 2.5-8 4.3-11.8 1.8-3.8 5.2-9.9 7.6-13.5 2.5-3.6 7.4-9.4 11-12.9 3.6-3.5 10.3-8.9 15-12 4.7-3.1 12.1-7.2 16.5-9 4.4-1.9 12.3-4.4 17.5-5.8 5.2-1.3 13-2.7 17.2-3.1l7.8-0.7c0.4-109.9 0.2-132.5-0.5-132.5-0.6 0.1-5.5 1.6-11 3.5z"/>
		<path id="Path 6" class="s2" d="m72.2 375.3c-3.3 1.6-4.9 3.4-6.4 6.7-1.5 3.3-1.9 5.6-1.5 8.5 0.3 2.2 1.5 5.1 2.5 6.5 1.1 1.4 3.2 3.4 4.6 4.5 2.7 2 4.3 2 82.9 2h80.2l-0.5-30.5h-157.5z"/>
		<path id="Path 7" class="s2" d="m280.2 103.9c-1.2 0.5-3.4 2.1-4.8 3.7-1.4 1.6-3 4.5-3.6 6.4-0.9 2.8-0.8 4.5 0.5 8.2 1 2.7 2.9 5.7 4.5 6.9 1.5 1.1 4.3 2.4 6.2 2.9 2.2 0.6 4.8 0.6 7 0 1.9-0.6 4.6-2 5.8-3.3 1.3-1.2 3-3.4 3.8-5 0.8-1.5 1.4-4.2 1.4-6 0-1.7-0.8-4.8-1.8-6.7-0.9-1.9-3.3-4.5-5.2-5.8-2.3-1.5-4.9-2.2-7.5-2.2-2.2 0.1-5 0.5-6.3 0.9z"/>
	</g>
</svg>